<?xml version="1.0" encoding="utf-8"?>
<!-- Generator: Adobe Illustrator 24.2.1, SVG Export Plug-In . SVG Version: 6.00 Build 0)  -->
<svg version="1.1" id="Слой_1" xmlns="http://www.w3.org/2000/svg" xmlns:xlink="http://www.w3.org/1999/xlink" x="0px" y="0px"
	 viewBox="0 0 300 300" style="enable-background:new 0 0 300 300;" xml:space="preserve">
<style type="text/css">
	.st0{fill:#EFE948;}
	.st1{fill:#DB7743;}
	.st2{fill:#7076B5;}
	.st3{fill:#F4C844;}
	.st4{fill:#56AD62;}
	.st5{fill:#7A5180;}
	.st6{fill:#0D0E0F;}
	.st7{fill:#723F41;}
	.st8{fill:#D24A44;}
	.st9{fill:#4D7953;}
	.st10{fill:#3B4071;}
	.st11{fill:#4FB4C5;}
</style>
<image style="display:none;overflow:visible;" width="315" height="334" xlink:href="AD81954.jpg"  transform="matrix(0.7607 0 0 0.7607 25.2374 28.9657)">
</image>
<path class="st0" d="M137.9,138.2c-9.4-35.5-18.9-70.9-28.3-106.4c7.9-1.6,17.8-2.9,29.2-2.8c10.8,0.1,20.2,1.3,27.8,2.8
	C157,67.3,147.5,102.7,137.9,138.2z"/>
<path class="st1" d="M136,138.9c-26-26-52.1-52.1-78.1-78.1C63.3,55.5,71,49,81.3,43.1c9.8-5.6,18.8-8.9,25.9-11
	C116.8,67.7,126.4,103.3,136,138.9z"/>
<path class="st2" d="M134.7,140.6c-35.6-9.5-71.2-19.1-106.8-28.6c2-7.3,5.4-16.8,11.2-27.1c5.6-9.8,11.7-17.2,16.8-22.6
	C82.2,88.4,108.5,114.5,134.7,140.6z"/>
<path class="st3" d="M134.5,142.3C99,152,63.4,161.6,27.9,171.3c-1.9-7.4-3.7-17.3-3.8-29.1c0-11.3,1.6-20.8,3.3-28
	C63.1,123.6,98.8,133,134.5,142.3z"/>
<path class="st4" d="M134.6,143.9c-25.9,26.2-51.8,52.3-77.7,78.5c-5.3-5.4-11.9-13.1-17.8-23.3c-5.7-9.7-9.1-18.8-11.2-25.8
	C63.5,163.4,99,153.7,134.6,143.9z"/>
<path class="st5" d="M136,145.3c-9.5,35.6-19,71.2-28.4,106.7c-7.3-2-16.8-5.4-27-11.3c-9.8-5.6-17.2-11.8-22.5-16.9
	C84,197.7,110,171.5,136,145.3z"/>
<path class="st6" d="M137.7,145.7c9.5,35.7,19,71.4,28.4,107.1c-7.4,1.9-17.3,3.7-29.1,3.8c-11.3,0-20.8-1.6-28-3.3
	C118.6,217.4,128.1,181.5,137.7,145.7z"/>
<path class="st7" d="M139.6,145.3c26,26,52,52,78,78.1c-4.9,4.6-11.1,9.8-18.9,14.7c-11.2,7-21.7,11.1-29.9,13.6
	C159,216.2,149.3,180.7,139.6,145.3z"/>
<path class="st8" d="M141.4,144.3c35.5,9.6,71,19.2,106.5,28.9c-1.9,6.4-4.8,14-9.1,22.1c-6.2,11.7-13.3,20.5-19.2,26.7
	C193.5,196.1,167.5,170.2,141.4,144.3z"/>
<path class="st9" d="M142.2,142.2c35.5-9.5,71-19.1,106.6-28.6c1.6,6.5,2.9,14.5,3.3,23.7c0.5,13.2-1.2,24.4-3.2,32.7
	C213.3,160.7,177.7,151.4,142.2,142.2z"/>
<path class="st10" d="M141.4,140.3c26.1-25.9,52.2-51.8,78.3-77.7c4.6,4.9,9.7,11.2,14.6,18.9c7,11.2,11.1,21.8,13.5,30
	C212.4,121.1,176.9,130.7,141.4,140.3z"/>
<path class="st11" d="M139.9,138.8c9.6-35.5,19.2-71,28.8-106.5c6.4,1.9,14,4.8,22.1,9.1c11.7,6.2,20.5,13.3,26.7,19.2
	C191.7,86.6,165.8,112.7,139.9,138.8z"/>
</svg>
